<mxfile host="app.diagrams.net" modified="2024-03-15T11:19:37.387Z" agent="Mozilla/5.0 (Windows NT 10.0; Win64; x64) AppleWebKit/537.36 (KHTML, like Gecko) Chrome/122.0.0.0 Safari/537.36" etag="TQtGy8ELLGxRb2yYFQuJ" version="24.0.7" type="github">
  <diagram name="Page-1" id="pLf0DlgirJg2gfVvpEym">
    <mxGraphModel dx="880" dy="434" grid="1" gridSize="10" guides="1" tooltips="1" connect="1" arrows="1" fold="1" page="1" pageScale="1" pageWidth="850" pageHeight="1100" math="0" shadow="0">
      <root>
        <mxCell id="0" />
        <mxCell id="1" parent="0" />
        <mxCell id="1oSkQ_wVZr1lqETH9gVj-1" value="" style="verticalLabelPosition=bottom;sketch=0;aspect=fixed;html=1;verticalAlign=top;strokeColor=none;align=center;outlineConnect=0;shape=mxgraph.citrix.browser;" vertex="1" parent="1">
          <mxGeometry x="283.75" y="123.75" width="47.5" height="72.5" as="geometry" />
        </mxCell>
        <mxCell id="1oSkQ_wVZr1lqETH9gVj-2" value="" style="image;aspect=fixed;perimeter=ellipsePerimeter;html=1;align=center;shadow=0;dashed=0;fontColor=#4277BB;labelBackgroundColor=default;fontSize=12;spacingTop=3;image=img/lib/ibm/users/browser.svg;" vertex="1" parent="1">
          <mxGeometry x="60" y="235" width="135" height="135" as="geometry" />
        </mxCell>
        <mxCell id="1oSkQ_wVZr1lqETH9gVj-3" value="" style="sketch=0;points=[[0.015,0.015,0],[0.985,0.015,0],[0.985,0.985,0],[0.015,0.985,0],[0.25,0,0],[0.5,0,0],[0.75,0,0],[1,0.25,0],[1,0.5,0],[1,0.75,0],[0.75,1,0],[0.5,1,0],[0.25,1,0],[0,0.75,0],[0,0.5,0],[0,0.25,0]];verticalLabelPosition=bottom;html=1;verticalAlign=top;aspect=fixed;align=center;pointerEvents=1;shape=mxgraph.cisco19.dns_server;fillColor=#005073;strokeColor=none;" vertex="1" parent="1">
          <mxGeometry x="460" y="130" width="27.500000000000004" height="50" as="geometry" />
        </mxCell>
        <mxCell id="1oSkQ_wVZr1lqETH9gVj-4" value="" style="image;html=1;image=img/lib/clip_art/computers/Server_Rack_128x128.png" vertex="1" parent="1">
          <mxGeometry x="650" y="400" width="80" height="80" as="geometry" />
        </mxCell>
        <mxCell id="1oSkQ_wVZr1lqETH9gVj-5" value="" style="sketch=0;outlineConnect=0;fontColor=#232F3E;gradientColor=none;fillColor=#8C4FFF;strokeColor=none;dashed=0;verticalLabelPosition=bottom;verticalAlign=top;align=center;html=1;fontSize=12;fontStyle=0;aspect=fixed;pointerEvents=1;shape=mxgraph.aws4.route_53_resolver_dns_firewall;" vertex="1" parent="1">
          <mxGeometry x="320" y="330" width="30" height="30" as="geometry" />
        </mxCell>
        <mxCell id="1oSkQ_wVZr1lqETH9gVj-6" value="" style="sketch=0;points=[[0.015,0.015,0],[0.985,0.015,0],[0.985,0.985,0],[0.015,0.985,0],[0.25,0,0],[0.5,0,0],[0.75,0,0],[1,0.25,0],[1,0.5,0],[1,0.75,0],[0.75,1,0],[0.5,1,0],[0.25,1,0],[0,0.75,0],[0,0.5,0],[0,0.25,0]];verticalLabelPosition=bottom;html=1;verticalAlign=top;aspect=fixed;align=center;pointerEvents=1;shape=mxgraph.cisco19.rect;prIcon=load_balancer;fillColor=#FAFAFA;strokeColor=#005073;" vertex="1" parent="1">
          <mxGeometry x="390" y="360" width="64" height="50" as="geometry" />
        </mxCell>
        <mxCell id="1oSkQ_wVZr1lqETH9gVj-7" value="" style="image;html=1;image=img/lib/clip_art/computers/Server_Rack_128x128.png" vertex="1" parent="1">
          <mxGeometry x="650" y="235" width="80" height="80" as="geometry" />
        </mxCell>
        <mxCell id="1oSkQ_wVZr1lqETH9gVj-8" value="" style="html=1;rounded=0;" vertex="1" parent="1">
          <mxGeometry x="330" y="359" width="37.5" height="30" as="geometry" />
        </mxCell>
        <mxCell id="1oSkQ_wVZr1lqETH9gVj-9" value="" style="endArrow=none;html=1;rounded=0;align=center;verticalAlign=top;endFill=0;labelBackgroundColor=none;endSize=2;" edge="1" source="1oSkQ_wVZr1lqETH9gVj-8" target="1oSkQ_wVZr1lqETH9gVj-10" parent="1">
          <mxGeometry relative="1" as="geometry" />
        </mxCell>
        <mxCell id="1oSkQ_wVZr1lqETH9gVj-10" value="" style="ellipse;html=1;fontSize=11;align=center;fillColor=none;points=[];aspect=fixed;resizable=0;verticalAlign=bottom;labelPosition=center;verticalLabelPosition=top;flipH=1;" vertex="1" parent="1">
          <mxGeometry x="382" y="381" width="8" height="8" as="geometry" />
        </mxCell>
        <mxCell id="1oSkQ_wVZr1lqETH9gVj-12" value="" style="sketch=0;pointerEvents=1;shadow=0;dashed=0;html=1;strokeColor=none;fillColor=#505050;labelPosition=center;verticalLabelPosition=bottom;verticalAlign=top;outlineConnect=0;align=center;shape=mxgraph.office.concepts.web_page;" vertex="1" parent="1">
          <mxGeometry x="540" y="346" width="50" height="54" as="geometry" />
        </mxCell>
        <mxCell id="1oSkQ_wVZr1lqETH9gVj-13" value="" style="image;html=1;image=img/lib/clip_art/computers/Database_128x128.png" vertex="1" parent="1">
          <mxGeometry x="770" y="315" width="80" height="80" as="geometry" />
        </mxCell>
        <mxCell id="1oSkQ_wVZr1lqETH9gVj-14" value="" style="edgeStyle=segmentEdgeStyle;endArrow=classic;html=1;curved=0;rounded=0;endSize=8;startSize=8;entryX=0;entryY=0.362;entryDx=0;entryDy=0;entryPerimeter=0;" edge="1" parent="1" source="1oSkQ_wVZr1lqETH9gVj-2" target="1oSkQ_wVZr1lqETH9gVj-1">
          <mxGeometry width="50" height="50" relative="1" as="geometry">
            <mxPoint x="130" y="240" as="sourcePoint" />
            <mxPoint x="270" y="150" as="targetPoint" />
            <Array as="points">
              <mxPoint x="130" y="150" />
            </Array>
          </mxGeometry>
        </mxCell>
        <mxCell id="1oSkQ_wVZr1lqETH9gVj-15" value="DNS server" style="text;strokeColor=none;align=center;fillColor=none;html=1;verticalAlign=middle;whiteSpace=wrap;rounded=0;" vertex="1" parent="1">
          <mxGeometry x="277.5" y="93.75" width="60" height="30" as="geometry" />
        </mxCell>
        <mxCell id="1oSkQ_wVZr1lqETH9gVj-16" value="" style="endArrow=classic;html=1;rounded=0;entryX=0;entryY=0.75;entryDx=0;entryDy=0;entryPerimeter=0;exitX=0.995;exitY=0.61;exitDx=0;exitDy=0;exitPerimeter=0;" edge="1" parent="1">
          <mxGeometry width="50" height="50" relative="1" as="geometry">
            <mxPoint x="331.01250000000005" y="159.97500000000002" as="sourcePoint" />
            <mxPoint x="460" y="159.5" as="targetPoint" />
          </mxGeometry>
        </mxCell>
        <mxCell id="1oSkQ_wVZr1lqETH9gVj-17" value="" style="endArrow=classic;html=1;rounded=0;exitX=0;exitY=0.642;exitDx=0;exitDy=0;exitPerimeter=0;" edge="1" parent="1">
          <mxGeometry width="50" height="50" relative="1" as="geometry">
            <mxPoint x="460" y="150.00000000000003" as="sourcePoint" />
            <mxPoint x="331.25" y="150.01131147540983" as="targetPoint" />
          </mxGeometry>
        </mxCell>
        <mxCell id="1oSkQ_wVZr1lqETH9gVj-18" value="" style="edgeStyle=segmentEdgeStyle;endArrow=classic;html=1;curved=0;rounded=0;endSize=8;startSize=8;entryX=0.585;entryY=0.015;entryDx=0;entryDy=0;entryPerimeter=0;" edge="1" parent="1" source="1oSkQ_wVZr1lqETH9gVj-1" target="1oSkQ_wVZr1lqETH9gVj-2">
          <mxGeometry width="50" height="50" relative="1" as="geometry">
            <mxPoint x="130" y="173.75" as="sourcePoint" />
            <mxPoint x="140" y="230" as="targetPoint" />
            <Array as="points">
              <mxPoint x="140" y="160" />
              <mxPoint x="140" y="230" />
              <mxPoint x="139" y="230" />
            </Array>
          </mxGeometry>
        </mxCell>
        <mxCell id="1oSkQ_wVZr1lqETH9gVj-19" value="DNS request(Domain Name)" style="text;strokeColor=none;align=center;fillColor=none;html=1;verticalAlign=middle;whiteSpace=wrap;rounded=0;" vertex="1" parent="1">
          <mxGeometry x="130" y="120" width="120" height="30" as="geometry" />
        </mxCell>
        <mxCell id="1oSkQ_wVZr1lqETH9gVj-20" value="DNS response(IP)" style="text;strokeColor=none;align=center;fillColor=none;html=1;verticalAlign=middle;whiteSpace=wrap;rounded=0;" vertex="1" parent="1">
          <mxGeometry x="160" y="160" width="60" height="30" as="geometry" />
        </mxCell>
        <mxCell id="1oSkQ_wVZr1lqETH9gVj-21" value="DNS resolution" style="text;strokeColor=none;align=center;fillColor=none;html=1;verticalAlign=middle;whiteSpace=wrap;rounded=0;" vertex="1" parent="1">
          <mxGeometry x="365" y="140" width="60" height="30" as="geometry" />
        </mxCell>
        <mxCell id="1oSkQ_wVZr1lqETH9gVj-25" value="" style="edgeStyle=elbowEdgeStyle;elbow=horizontal;endArrow=classic;html=1;curved=0;rounded=0;endSize=8;startSize=8;" edge="1" parent="1" source="1oSkQ_wVZr1lqETH9gVj-11" target="1oSkQ_wVZr1lqETH9gVj-8">
          <mxGeometry width="50" height="50" relative="1" as="geometry">
            <mxPoint x="182.5" y="280" as="sourcePoint" />
            <mxPoint x="337.5" y="339" as="targetPoint" />
            <Array as="points">
              <mxPoint x="337.5" y="350" />
            </Array>
          </mxGeometry>
        </mxCell>
        <mxCell id="1oSkQ_wVZr1lqETH9gVj-26" value="" style="edgeStyle=elbowEdgeStyle;elbow=horizontal;endArrow=classic;html=1;curved=0;rounded=0;endSize=8;startSize=8;" edge="1" parent="1" source="1oSkQ_wVZr1lqETH9gVj-2" target="1oSkQ_wVZr1lqETH9gVj-11">
          <mxGeometry width="50" height="50" relative="1" as="geometry">
            <mxPoint x="195" y="283" as="sourcePoint" />
            <mxPoint x="337.5" y="339" as="targetPoint" />
            <Array as="points">
              <mxPoint x="233" y="283" />
            </Array>
          </mxGeometry>
        </mxCell>
        <mxCell id="1oSkQ_wVZr1lqETH9gVj-11" value="Encrypted&#xa;data" style="sketch=0;outlineConnect=0;fontColor=#232F3E;gradientColor=none;strokeColor=#232F3E;fillColor=#ffffff;dashed=0;verticalLabelPosition=bottom;verticalAlign=top;align=center;html=1;fontSize=12;fontStyle=0;aspect=fixed;shape=mxgraph.aws4.resourceIcon;resIcon=mxgraph.aws4.encrypted_data;" vertex="1" parent="1">
          <mxGeometry x="270" y="270" width="30" height="30" as="geometry" />
        </mxCell>
        <mxCell id="1oSkQ_wVZr1lqETH9gVj-28" value="" style="edgeStyle=elbowEdgeStyle;elbow=vertical;endArrow=classic;html=1;curved=0;rounded=0;endSize=8;startSize=8;exitX=0.25;exitY=0;exitDx=0;exitDy=0;exitPerimeter=0;" edge="1" parent="1">
          <mxGeometry width="50" height="50" relative="1" as="geometry">
            <mxPoint x="423" y="360" as="sourcePoint" />
            <mxPoint x="667" y="280" as="targetPoint" />
            <Array as="points">
              <mxPoint x="417" y="280" />
            </Array>
          </mxGeometry>
        </mxCell>
        <mxCell id="1oSkQ_wVZr1lqETH9gVj-29" value="" style="edgeStyle=elbowEdgeStyle;elbow=vertical;endArrow=classic;html=1;curved=0;rounded=0;endSize=8;startSize=8;exitX=0.25;exitY=1;exitDx=0;exitDy=0;exitPerimeter=0;" edge="1" parent="1">
          <mxGeometry width="50" height="50" relative="1" as="geometry">
            <mxPoint x="424" y="410" as="sourcePoint" />
            <mxPoint x="668" y="450" as="targetPoint" />
            <Array as="points">
              <mxPoint x="428" y="450" />
            </Array>
          </mxGeometry>
        </mxCell>
        <mxCell id="1oSkQ_wVZr1lqETH9gVj-30" value="" style="edgeStyle=segmentEdgeStyle;endArrow=classic;html=1;curved=0;rounded=0;endSize=8;startSize=8;entryX=0.5;entryY=1;entryDx=0;entryDy=0;" edge="1" parent="1">
          <mxGeometry width="50" height="50" relative="1" as="geometry">
            <mxPoint x="713" y="447" as="sourcePoint" />
            <mxPoint x="810" y="394" as="targetPoint" />
            <Array as="points">
              <mxPoint x="810" y="447" />
            </Array>
          </mxGeometry>
        </mxCell>
        <mxCell id="1oSkQ_wVZr1lqETH9gVj-32" value="" style="edgeStyle=segmentEdgeStyle;endArrow=classic;html=1;curved=0;rounded=0;endSize=8;startSize=8;" edge="1" parent="1">
          <mxGeometry width="50" height="50" relative="1" as="geometry">
            <mxPoint x="711" y="281" as="sourcePoint" />
            <mxPoint x="808" y="315" as="targetPoint" />
            <Array as="points">
              <mxPoint x="808" y="281" />
            </Array>
          </mxGeometry>
        </mxCell>
        <mxCell id="1oSkQ_wVZr1lqETH9gVj-33" value="" style="endArrow=classic;html=1;rounded=0;" edge="1" parent="1">
          <mxGeometry width="50" height="50" relative="1" as="geometry">
            <mxPoint x="802" y="447" as="sourcePoint" />
            <mxPoint x="712" y="447" as="targetPoint" />
          </mxGeometry>
        </mxCell>
        <mxCell id="1oSkQ_wVZr1lqETH9gVj-35" value="" style="endArrow=classic;html=1;rounded=0;" edge="1" parent="1">
          <mxGeometry width="50" height="50" relative="1" as="geometry">
            <mxPoint x="690" y="378" as="sourcePoint" />
            <mxPoint x="588" y="378" as="targetPoint" />
          </mxGeometry>
        </mxCell>
        <mxCell id="1oSkQ_wVZr1lqETH9gVj-36" value="" style="endArrow=classic;html=1;rounded=0;" edge="1" parent="1">
          <mxGeometry width="50" height="50" relative="1" as="geometry">
            <mxPoint x="542" y="378" as="sourcePoint" />
            <mxPoint x="452" y="378" as="targetPoint" />
          </mxGeometry>
        </mxCell>
        <mxCell id="1oSkQ_wVZr1lqETH9gVj-37" value="" style="endArrow=none;html=1;rounded=0;" edge="1" parent="1">
          <mxGeometry width="50" height="50" relative="1" as="geometry">
            <mxPoint x="690" y="397" as="sourcePoint" />
            <mxPoint x="690" y="380" as="targetPoint" />
          </mxGeometry>
        </mxCell>
        <mxCell id="1oSkQ_wVZr1lqETH9gVj-38" value="" style="edgeStyle=segmentEdgeStyle;endArrow=classic;html=1;curved=0;rounded=0;endSize=8;startSize=8;" edge="1" parent="1">
          <mxGeometry width="50" height="50" relative="1" as="geometry">
            <mxPoint x="690" y="310" as="sourcePoint" />
            <mxPoint x="580" y="361" as="targetPoint" />
            <Array as="points">
              <mxPoint x="690" y="361" />
            </Array>
          </mxGeometry>
        </mxCell>
        <mxCell id="1oSkQ_wVZr1lqETH9gVj-39" value="PORT443" style="text;strokeColor=none;align=center;fillColor=none;html=1;verticalAlign=middle;whiteSpace=wrap;rounded=0;" vertex="1" parent="1">
          <mxGeometry x="330" y="365" width="60" height="30" as="geometry" />
        </mxCell>
        <mxCell id="1oSkQ_wVZr1lqETH9gVj-40" value="PORT80" style="text;strokeColor=none;align=center;fillColor=none;html=1;verticalAlign=middle;whiteSpace=wrap;rounded=0;" vertex="1" parent="1">
          <mxGeometry x="657" y="368" width="60" height="30" as="geometry" />
        </mxCell>
        <mxCell id="1oSkQ_wVZr1lqETH9gVj-41" value="PORT80" style="text;strokeColor=none;align=center;fillColor=none;html=1;verticalAlign=middle;whiteSpace=wrap;rounded=0;" vertex="1" parent="1">
          <mxGeometry x="654" y="305" width="60" height="30" as="geometry" />
        </mxCell>
        <mxCell id="1oSkQ_wVZr1lqETH9gVj-42" value="Firewall" style="text;strokeColor=none;align=center;fillColor=none;html=1;verticalAlign=middle;whiteSpace=wrap;rounded=0;" vertex="1" parent="1">
          <mxGeometry x="307.5" y="329" width="60" height="30" as="geometry" />
        </mxCell>
        <mxCell id="1oSkQ_wVZr1lqETH9gVj-43" value="LOAD BALANCER" style="text;strokeColor=none;align=center;fillColor=none;html=1;verticalAlign=middle;whiteSpace=wrap;rounded=0;" vertex="1" parent="1">
          <mxGeometry x="395" y="398" width="60" height="30" as="geometry" />
        </mxCell>
        <mxCell id="1oSkQ_wVZr1lqETH9gVj-44" value="" style="sketch=0;aspect=fixed;pointerEvents=1;shadow=0;dashed=0;html=1;strokeColor=none;labelPosition=center;verticalLabelPosition=bottom;verticalAlign=top;align=center;fillColor=#00188D;shape=mxgraph.mscae.enterprise.application_server2" vertex="1" parent="1">
          <mxGeometry x="750" y="250" width="43" height="50" as="geometry" />
        </mxCell>
        <mxCell id="1oSkQ_wVZr1lqETH9gVj-45" value="" style="sketch=0;aspect=fixed;pointerEvents=1;shadow=0;dashed=0;html=1;strokeColor=none;labelPosition=center;verticalLabelPosition=bottom;verticalAlign=top;align=center;fillColor=#00188D;shape=mxgraph.mscae.enterprise.application_server2" vertex="1" parent="1">
          <mxGeometry x="760" y="422" width="43" height="50" as="geometry" />
        </mxCell>
        <mxCell id="1oSkQ_wVZr1lqETH9gVj-46" value="database" style="text;strokeColor=none;align=center;fillColor=none;html=1;verticalAlign=middle;whiteSpace=wrap;rounded=0;" vertex="1" parent="1">
          <mxGeometry x="780" y="346" width="60" height="30" as="geometry" />
        </mxCell>
        <mxCell id="1oSkQ_wVZr1lqETH9gVj-47" value="application server" style="text;strokeColor=none;align=center;fillColor=none;html=1;verticalAlign=middle;whiteSpace=wrap;rounded=0;" vertex="1" parent="1">
          <mxGeometry x="751.5" y="210" width="60" height="30" as="geometry" />
        </mxCell>
        <mxCell id="1oSkQ_wVZr1lqETH9gVj-48" value="application server" style="text;strokeColor=none;align=center;fillColor=none;html=1;verticalAlign=middle;whiteSpace=wrap;rounded=0;" vertex="1" parent="1">
          <mxGeometry x="756.5" y="478" width="60" height="30" as="geometry" />
        </mxCell>
        <mxCell id="1oSkQ_wVZr1lqETH9gVj-49" value="web server" style="text;strokeColor=none;align=center;fillColor=none;html=1;verticalAlign=middle;whiteSpace=wrap;rounded=0;" vertex="1" parent="1">
          <mxGeometry x="657" y="205" width="60" height="30" as="geometry" />
        </mxCell>
        <mxCell id="1oSkQ_wVZr1lqETH9gVj-50" value="web server" style="text;strokeColor=none;align=center;fillColor=none;html=1;verticalAlign=middle;whiteSpace=wrap;rounded=0;" vertex="1" parent="1">
          <mxGeometry x="657" y="478" width="60" height="30" as="geometry" />
        </mxCell>
        <mxCell id="1oSkQ_wVZr1lqETH9gVj-51" value="web page" style="text;strokeColor=none;align=center;fillColor=none;html=1;verticalAlign=middle;whiteSpace=wrap;rounded=0;" vertex="1" parent="1">
          <mxGeometry x="530" y="359" width="60" height="30" as="geometry" />
        </mxCell>
        <mxCell id="1oSkQ_wVZr1lqETH9gVj-52" value="" style="endArrow=classic;html=1;rounded=0;" edge="1" parent="1">
          <mxGeometry width="50" height="50" relative="1" as="geometry">
            <mxPoint x="750" y="280" as="sourcePoint" />
            <mxPoint x="709" y="281" as="targetPoint" />
          </mxGeometry>
        </mxCell>
        <mxCell id="1oSkQ_wVZr1lqETH9gVj-54" value="" style="edgeStyle=segmentEdgeStyle;endArrow=classic;html=1;curved=0;rounded=0;endSize=8;startSize=8;entryX=0.437;entryY=0.993;entryDx=0;entryDy=0;entryPerimeter=0;" edge="1" parent="1">
          <mxGeometry width="50" height="50" relative="1" as="geometry">
            <mxPoint x="389" y="400" as="sourcePoint" />
            <mxPoint x="127.995" y="369.05500000000006" as="targetPoint" />
            <Array as="points">
              <mxPoint x="389" y="400" />
              <mxPoint x="128" y="400" />
            </Array>
          </mxGeometry>
        </mxCell>
        <mxCell id="1oSkQ_wVZr1lqETH9gVj-55" value="" style="sketch=0;pointerEvents=1;shadow=0;dashed=0;html=1;strokeColor=none;fillColor=#505050;labelPosition=center;verticalLabelPosition=bottom;verticalAlign=top;outlineConnect=0;align=center;shape=mxgraph.office.concepts.web_page;" vertex="1" parent="1">
          <mxGeometry x="102.5" y="292" width="50" height="54" as="geometry" />
        </mxCell>
      </root>
    </mxGraphModel>
  </diagram>
</mxfile>
